<?xml version="1.0" encoding="UTF-8" standalone="no"?>
<!-- Created with Inkscape (http://www.inkscape.org/) -->

<svg
   xmlns:dc="http://purl.org/dc/elements/1.1/"
   xmlns:cc="http://creativecommons.org/ns#"
   xmlns:rdf="http://www.w3.org/1999/02/22-rdf-syntax-ns#"
   xmlns:svg="http://www.w3.org/2000/svg"
   xmlns="http://www.w3.org/2000/svg"
   xmlns:sodipodi="http://sodipodi.sourceforge.net/DTD/sodipodi-0.dtd"
   xmlns:inkscape="http://www.inkscape.org/namespaces/inkscape"
   width="297mm"
   height="120mm"
   viewBox="0 0 1052.3622 425.19685"
   id="svg2"
   version="1.1"
   inkscape:version="0.91 r13725"
   sodipodi:docname="wvandspaces.svg"
   inkscape:export-filename="/home/alessio/y-LiegiInitialReport/Doc/images/wvandspaces.png"
   inkscape:export-xdpi="90"
   inkscape:export-ydpi="90">
  <sodipodi:namedview
     id="base"
     pagecolor="#ffffff"
     bordercolor="#666666"
     borderopacity="1.0"
     inkscape:pageopacity="0.0"
     inkscape:pageshadow="2"
     inkscape:zoom="0.7"
     inkscape:cx="501.07872"
     inkscape:cy="169.18486"
     inkscape:document-units="px"
     inkscape:current-layer="layer1"
     showgrid="false"
     inkscape:window-width="1920"
     inkscape:window-height="1056"
     inkscape:window-x="0"
     inkscape:window-y="24"
     inkscape:window-maximized="1" />
  <defs
     id="defs4" />
  <metadata
     id="metadata7">
    <rdf:RDF>
      <cc:Work
         rdf:about="">
        <dc:format>image/svg+xml</dc:format>
        <dc:type
           rdf:resource="http://purl.org/dc/dcmitype/StillImage" />
        <dc:title></dc:title>
      </cc:Work>
    </rdf:RDF>
  </metadata>
  <g
     inkscape:label="Layer 1"
     inkscape:groupmode="layer"
     id="layer1"
     transform="translate(0,-627.16536)">
    <path
       style="fill:none;fill-rule:evenodd;stroke:#00cd00;stroke-width:1.59974098px;stroke-linecap:butt;stroke-linejoin:miter;stroke-opacity:1"
       d="M 72.832854,912.53031 C 123.74065,823.79716 204.56494,668.94584 280.48661,669.32495 c 75.92166,0.3791 194.55674,150.60235 266.63711,149.47837 72.08036,-1.12397 52.50458,-53.30884 109.8868,-53.32741 57.38221,-0.0186 60.48427,45.41487 117.96673,46.0555 57.48247,0.64064 51.28982,-23.33814 95.34296,-21.00778 44.05313,2.33038 94.53497,169.67817 94.53497,169.67817"
       id="path4161"
       inkscape:connector-curvature="0"
       sodipodi:nodetypes="czzzzzc" />
    <path
       style="fill:none;fill-rule:evenodd;stroke:#ff0000;stroke-width:1.59974098;stroke-linecap:butt;stroke-linejoin:miter;stroke-miterlimit:4;stroke-dasharray:1.59974104, 1.59974104;stroke-dashoffset:0;stroke-opacity:1"
       d="m 77.570708,901.80173 0,61.13295"
       id="path4345"
       inkscape:connector-curvature="0" />
    <path
       style="fill:none;fill-rule:evenodd;stroke:#000000;stroke-width:1.59974098px;stroke-linecap:butt;stroke-linejoin:miter;stroke-opacity:1"
       d="m 22.46591,962.93468 1002.17519,0"
       id="path4157"
       inkscape:connector-curvature="0"
       sodipodi:nodetypes="cc" />
    <ellipse
       style="fill:#ff0000;fill-opacity:1;stroke:none;stroke-width:3.5;stroke-miterlimit:4;stroke-dasharray:none;stroke-dashoffset:0;stroke-opacity:1"
       id="path4163"
       cx="77.818344"
       cy="963.93732"
       rx="3.938957"
       ry="3.7965851" />
    <ellipse
       style="fill:#ff0000;fill-opacity:1;stroke:none;stroke-width:3.5;stroke-miterlimit:4;stroke-dasharray:none;stroke-dashoffset:0;stroke-opacity:1"
       id="path4163-3"
       cx="136.70073"
       cy="963.93732"
       rx="3.938957"
       ry="3.7965851" />
    <ellipse
       style="fill:#ff0000;fill-opacity:1;stroke:none;stroke-width:3.5;stroke-miterlimit:4;stroke-dasharray:none;stroke-dashoffset:0;stroke-opacity:1"
       id="path4163-3-7"
       cx="195.2296"
       cy="963.93732"
       rx="3.938957"
       ry="3.7965851" />
    <ellipse
       style="fill:#ff0000;fill-opacity:1;stroke:none;stroke-width:3.5;stroke-miterlimit:4;stroke-dasharray:none;stroke-dashoffset:0;stroke-opacity:1"
       id="path4163-3-3"
       cx="254.2382"
       cy="963.93732"
       rx="3.938957"
       ry="3.7965851" />
    <ellipse
       style="fill:#ff0000;fill-opacity:1;stroke:none;stroke-width:3.5;stroke-miterlimit:4;stroke-dasharray:none;stroke-dashoffset:0;stroke-opacity:1"
       id="path4163-3-7-5"
       cx="312.767"
       cy="963.93732"
       rx="3.938957"
       ry="3.7965851" />
    <ellipse
       style="fill:#ff0000;fill-opacity:1;stroke:none;stroke-width:3.5;stroke-miterlimit:4;stroke-dasharray:none;stroke-dashoffset:0;stroke-opacity:1"
       id="path4163-3-2"
       cx="371.66248"
       cy="963.93732"
       rx="3.938957"
       ry="3.7965851" />
    <ellipse
       style="fill:#ff0000;fill-opacity:1;stroke:none;stroke-width:3.5;stroke-miterlimit:4;stroke-dasharray:none;stroke-dashoffset:0;stroke-opacity:1"
       id="path4163-3-7-9"
       cx="430.19131"
       cy="963.93732"
       rx="3.938957"
       ry="3.7965851" />
    <ellipse
       style="fill:#ff0000;fill-opacity:1;stroke:none;stroke-width:3.5;stroke-miterlimit:4;stroke-dasharray:none;stroke-dashoffset:0;stroke-opacity:1"
       id="path4163-3-3-1"
       cx="489.19992"
       cy="963.93732"
       rx="3.938957"
       ry="3.7965851" />
    <ellipse
       style="fill:#ff0000;fill-opacity:1;stroke:none;stroke-width:3.5;stroke-miterlimit:4;stroke-dasharray:none;stroke-dashoffset:0;stroke-opacity:1"
       id="path4163-3-7-5-2"
       cx="547.72876"
       cy="963.93732"
       rx="3.938957"
       ry="3.7965851" />
    <ellipse
       style="fill:#ff0000;fill-opacity:1;stroke:none;stroke-width:3.5;stroke-miterlimit:4;stroke-dasharray:none;stroke-dashoffset:0;stroke-opacity:1"
       id="path4163-3-7-93"
       cx="606.57123"
       cy="963.93732"
       rx="3.938957"
       ry="3.7965851" />
    <ellipse
       style="fill:#ff0000;fill-opacity:1;stroke:none;stroke-width:3.5;stroke-miterlimit:4;stroke-dasharray:none;stroke-dashoffset:0;stroke-opacity:1"
       id="path4163-3-3-6"
       cx="665.57983"
       cy="963.93732"
       rx="3.938957"
       ry="3.7965851" />
    <ellipse
       style="fill:#ff0000;fill-opacity:1;stroke:none;stroke-width:3.5;stroke-miterlimit:4;stroke-dasharray:none;stroke-dashoffset:0;stroke-opacity:1"
       id="path4163-3-7-5-0"
       cx="724.10864"
       cy="963.93732"
       rx="3.938957"
       ry="3.7965851" />
    <ellipse
       style="fill:#ff0000;fill-opacity:1;stroke:none;stroke-width:3.5;stroke-miterlimit:4;stroke-dasharray:none;stroke-dashoffset:0;stroke-opacity:1"
       id="path4163-3-2-6"
       cx="783.00409"
       cy="963.93732"
       rx="3.938957"
       ry="3.7965851" />
    <ellipse
       style="fill:#ff0000;fill-opacity:1;stroke:none;stroke-width:3.5;stroke-miterlimit:4;stroke-dasharray:none;stroke-dashoffset:0;stroke-opacity:1"
       id="path4163-3-7-9-2"
       cx="841.53296"
       cy="963.93732"
       rx="3.938957"
       ry="3.7965851" />
    <ellipse
       style="fill:#ff0000;fill-opacity:1;stroke:none;stroke-width:3.5;stroke-miterlimit:4;stroke-dasharray:none;stroke-dashoffset:0;stroke-opacity:1"
       id="path4163-3-3-1-6"
       cx="900.5415"
       cy="963.93732"
       rx="3.938957"
       ry="3.7965851" />
    <ellipse
       style="fill:#ff0000;fill-opacity:1;stroke:none;stroke-width:3.5;stroke-miterlimit:4;stroke-dasharray:none;stroke-dashoffset:0;stroke-opacity:1"
       id="path4163-3-7-5-2-1"
       cx="959.07031"
       cy="963.93732"
       rx="3.938957"
       ry="3.7965851" />
    <ellipse
       style="fill:#ff0000;fill-opacity:1;stroke:none;stroke-width:3.5;stroke-miterlimit:4;stroke-dasharray:none;stroke-dashoffset:0;stroke-opacity:1"
       id="path4163-8"
       cx="77.412216"
       cy="903.59869"
       rx="3.938957"
       ry="3.7965851" />
    <ellipse
       style="fill:#ff0000;fill-opacity:1;stroke:none;stroke-width:3.5;stroke-miterlimit:4;stroke-dasharray:none;stroke-dashoffset:0;stroke-opacity:1"
       id="path4163-3-79"
       cx="136.29459"
       cy="805.39233"
       rx="3.938957"
       ry="3.7965851" />
    <ellipse
       style="fill:#ff0000;fill-opacity:1;stroke:none;stroke-width:3.5;stroke-miterlimit:4;stroke-dasharray:none;stroke-dashoffset:0;stroke-opacity:1"
       id="path4163-3-7-2"
       cx="194.82344"
       cy="724.26257"
       rx="3.938957"
       ry="3.7965851" />
    <ellipse
       style="fill:#ff0000;fill-opacity:1;stroke:none;stroke-width:3.5;stroke-miterlimit:4;stroke-dasharray:none;stroke-dashoffset:0;stroke-opacity:1"
       id="path4163-3-3-0"
       cx="253.83205"
       cy="676.27032"
       rx="3.938957"
       ry="3.7965851" />
    <ellipse
       style="fill:#ff0000;fill-opacity:1;stroke:none;stroke-width:3.5;stroke-miterlimit:4;stroke-dasharray:none;stroke-dashoffset:0;stroke-opacity:1"
       id="path4163-3-7-5-23"
       cx="312.36081"
       cy="676.27032"
       rx="3.938957"
       ry="3.7965851" />
    <ellipse
       style="fill:#ff0000;fill-opacity:1;stroke:none;stroke-width:3.5;stroke-miterlimit:4;stroke-dasharray:none;stroke-dashoffset:0;stroke-opacity:1"
       id="path4163-3-2-7"
       cx="371.25629"
       cy="711.4646"
       rx="3.938957"
       ry="3.7965851" />
    <ellipse
       style="fill:#ff0000;fill-opacity:1;stroke:none;stroke-width:3.5;stroke-miterlimit:4;stroke-dasharray:none;stroke-dashoffset:0;stroke-opacity:1"
       id="path4163-3-7-9-5"
       cx="429.78513"
       cy="756.25739"
       rx="3.938957"
       ry="3.7965851" />
    <ellipse
       style="fill:#ff0000;fill-opacity:1;stroke:none;stroke-width:3.5;stroke-miterlimit:4;stroke-dasharray:none;stroke-dashoffset:0;stroke-opacity:1"
       id="path4163-3-3-1-9"
       cx="488.79373"
       cy="797.85065"
       rx="3.938957"
       ry="3.7965851" />
    <ellipse
       style="fill:#ff0000;fill-opacity:1;stroke:none;stroke-width:3.5;stroke-miterlimit:4;stroke-dasharray:none;stroke-dashoffset:0;stroke-opacity:1"
       id="path4163-3-7-5-2-2"
       cx="547.32257"
       cy="819.33289"
       rx="3.938957"
       ry="3.7965851" />
    <ellipse
       style="fill:#ff0000;fill-opacity:1;stroke:none;stroke-width:3.5;stroke-miterlimit:4;stroke-dasharray:none;stroke-dashoffset:0;stroke-opacity:1"
       id="path4163-3-7-93-2"
       cx="606.16498"
       cy="794.65118"
       rx="3.938957"
       ry="3.7965851" />
    <ellipse
       style="fill:#ff0000;fill-opacity:1;stroke:none;stroke-width:3.5;stroke-miterlimit:4;stroke-dasharray:none;stroke-dashoffset:0;stroke-opacity:1"
       id="path4163-3-3-6-8"
       cx="665.45923"
       cy="765.85583"
       rx="3.938957"
       ry="3.7965851" />
    <ellipse
       style="fill:#ff0000;fill-opacity:1;stroke:none;stroke-width:3.5;stroke-miterlimit:4;stroke-dasharray:none;stroke-dashoffset:0;stroke-opacity:1"
       id="path4163-3-7-5-0-9"
       cx="723.98804"
       cy="794.65118"
       rx="3.938957"
       ry="3.7965851" />
    <ellipse
       style="fill:#ff0000;fill-opacity:1;stroke:none;stroke-width:3.5;stroke-miterlimit:4;stroke-dasharray:none;stroke-dashoffset:0;stroke-opacity:1"
       id="path4163-3-2-6-7"
       cx="782.59796"
       cy="811.79126"
       rx="3.938957"
       ry="3.7965851" />
    <ellipse
       style="fill:#ff0000;fill-opacity:1;stroke:none;stroke-width:3.5;stroke-miterlimit:4;stroke-dasharray:none;stroke-dashoffset:0;stroke-opacity:1"
       id="path4163-3-7-9-2-3"
       cx="841.12689"
       cy="794.65118"
       rx="3.938957"
       ry="3.7965851" />
    <ellipse
       style="fill:#ff0000;fill-opacity:1;stroke:none;stroke-width:3.5;stroke-miterlimit:4;stroke-dasharray:none;stroke-dashoffset:0;stroke-opacity:1"
       id="path4163-3-3-1-6-6"
       cx="900.13544"
       cy="812.9339"
       rx="3.938957"
       ry="3.7965851" />
    <ellipse
       style="fill:#ff0000;fill-opacity:1;stroke:none;stroke-width:3.5;stroke-miterlimit:4;stroke-dasharray:none;stroke-dashoffset:0;stroke-opacity:1"
       id="path4163-3-7-5-2-1-1"
       cx="958.94989"
       cy="942.97009"
       rx="3.938957"
       ry="3.7965851" />
    <path
       style="fill:none;fill-rule:evenodd;stroke:#ff0000;stroke-width:1.59974098;stroke-linecap:butt;stroke-linejoin:miter;stroke-miterlimit:4;stroke-dasharray:1.59974104, 1.59974104;stroke-dashoffset:0;stroke-opacity:1"
       d="m 136.95651,804.26675 0,154.05194"
       id="path4345-2"
       inkscape:connector-curvature="0"
       sodipodi:nodetypes="cc" />
    <path
       style="fill:none;fill-rule:evenodd;stroke:#ff0000;stroke-width:1.59974098;stroke-linecap:butt;stroke-linejoin:miter;stroke-miterlimit:4;stroke-dasharray:1.59974104, 1.59974104;stroke-dashoffset:0;stroke-opacity:1"
       d="m 194.83954,724.61756 0,237.46702"
       id="path4345-2-9"
       inkscape:connector-curvature="0"
       sodipodi:nodetypes="cc" />
    <path
       style="fill:none;fill-rule:evenodd;stroke:#ff0000;stroke-width:1.59974098;stroke-linecap:butt;stroke-linejoin:miter;stroke-miterlimit:4;stroke-dasharray:1.59974104, 1.59974104;stroke-dashoffset:0;stroke-opacity:1"
       d="m 254.20572,676.8401 0,283.45955"
       id="path4345-2-3"
       inkscape:connector-curvature="0"
       sodipodi:nodetypes="cc" />
    <path
       style="fill:none;fill-rule:evenodd;stroke:#ff0000;stroke-width:1.59974098;stroke-linecap:butt;stroke-linejoin:miter;stroke-miterlimit:4;stroke-dasharray:1.59974104, 1.59974104;stroke-dashoffset:0;stroke-opacity:1"
       d="m 312.66009,676.32097 0,286.03057"
       id="path4345-2-9-1"
       inkscape:connector-curvature="0"
       sodipodi:nodetypes="cc" />
    <path
       style="fill:none;fill-rule:evenodd;stroke:#ff0000;stroke-width:1.59974098;stroke-linecap:butt;stroke-linejoin:miter;stroke-miterlimit:4;stroke-dasharray:1.59974104, 1.59974104;stroke-dashoffset:0;stroke-opacity:1"
       d="m 371.72321,711.07638 0,250.60775"
       id="path4345-2-94"
       inkscape:connector-curvature="0"
       sodipodi:nodetypes="cc" />
    <path
       style="fill:none;fill-rule:evenodd;stroke:#ff0000;stroke-width:1.59974098;stroke-linecap:butt;stroke-linejoin:miter;stroke-miterlimit:4;stroke-dasharray:1.59974104, 1.59974104;stroke-dashoffset:0;stroke-opacity:1"
       d="m 429.89191,757.69248 0,207.75754"
       id="path4345-2-9-7"
       inkscape:connector-curvature="0"
       sodipodi:nodetypes="cc" />
    <path
       style="fill:none;fill-rule:evenodd;stroke:#ff0000;stroke-width:1.59974098;stroke-linecap:butt;stroke-linejoin:miter;stroke-miterlimit:4;stroke-dasharray:1.59974104, 1.59974104;stroke-dashoffset:0;stroke-opacity:1"
       d="m 489.25809,798.18644 0,163.76466"
       id="path4345-2-3-8"
       inkscape:connector-curvature="0"
       sodipodi:nodetypes="cc" />
    <path
       style="fill:none;fill-rule:evenodd;stroke:#ff0000;stroke-width:1.59974098;stroke-linecap:butt;stroke-linejoin:miter;stroke-miterlimit:4;stroke-dasharray:1.59974104, 1.59974104;stroke-dashoffset:0;stroke-opacity:1"
       d="m 547.71245,819.09241 0,146.62457"
       id="path4345-2-9-1-4"
       inkscape:connector-curvature="0"
       sodipodi:nodetypes="cc" />
    <path
       style="fill:none;fill-rule:evenodd;stroke:#ff0000;stroke-width:1.59974098;stroke-linecap:butt;stroke-linejoin:miter;stroke-miterlimit:4;stroke-dasharray:1.59974104, 1.59974104;stroke-dashoffset:0;stroke-opacity:1"
       d="m 606.56299,793.34879 0,168.33534"
       id="path4345-2-94-5"
       inkscape:connector-curvature="0"
       sodipodi:nodetypes="cc" />
    <path
       style="fill:none;fill-rule:evenodd;stroke:#ff0000;stroke-width:1.59974098;stroke-linecap:butt;stroke-linejoin:miter;stroke-miterlimit:4;stroke-dasharray:1.59974104, 1.59974104;stroke-dashoffset:0;stroke-opacity:1"
       d="m 665.58868,765.40555 0,196.90214"
       id="path4345-2-9-7-0"
       inkscape:connector-curvature="0"
       sodipodi:nodetypes="cc" />
    <path
       style="fill:none;fill-rule:evenodd;stroke:#ff0000;stroke-width:1.59974098;stroke-linecap:butt;stroke-linejoin:miter;stroke-miterlimit:4;stroke-dasharray:1.59974104, 1.59974104;stroke-dashoffset:0;stroke-opacity:1"
       d="m 724.09787,794.75842 0,167.19268"
       id="path4345-2-3-8-3"
       inkscape:connector-curvature="0"
       sodipodi:nodetypes="cc" />
    <path
       style="fill:none;fill-rule:evenodd;stroke:#ff0000;stroke-width:1.59974098;stroke-linecap:butt;stroke-linejoin:miter;stroke-miterlimit:4;stroke-dasharray:1.59974104, 1.59974104;stroke-dashoffset:0;stroke-opacity:1"
       d="m 782.83789,811.66504 0,154.05194"
       id="path4345-2-9-1-4-6"
       inkscape:connector-curvature="0"
       sodipodi:nodetypes="cc" />
    <path
       style="fill:none;fill-rule:evenodd;stroke:#ff0000;stroke-width:1.59974098;stroke-linecap:butt;stroke-linejoin:miter;stroke-miterlimit:4;stroke-dasharray:1.59974104, 1.59974104;stroke-dashoffset:0;stroke-opacity:1"
       d="m 841.4518,795.0138 0,167.47834"
       id="path4345-2-94-5-1"
       inkscape:connector-curvature="0"
       sodipodi:nodetypes="cc" />
    <path
       style="fill:none;fill-rule:evenodd;stroke:#ff0000;stroke-width:1.59974098;stroke-linecap:butt;stroke-linejoin:miter;stroke-miterlimit:4;stroke-dasharray:1.59974104, 1.59974104;stroke-dashoffset:0;stroke-opacity:1"
       d="m 900.19183,813.3488 0,148.90991"
       id="path4345-2-9-7-0-0"
       inkscape:connector-curvature="0"
       sodipodi:nodetypes="cc" />
    <path
       style="fill:none;fill-rule:evenodd;stroke:#ff0000;stroke-width:1.59974098;stroke-linecap:butt;stroke-linejoin:miter;stroke-miterlimit:4;stroke-dasharray:1.59974104, 1.59974104;stroke-dashoffset:0;stroke-opacity:1"
       d="m 959.27234,943.82816 0,18.93095"
       id="path4345-2-3-8-3-6"
       inkscape:connector-curvature="0"
       sodipodi:nodetypes="cc" />
    <text
       xml:space="preserve"
       style="font-style:normal;font-weight:normal;font-size:40px;line-height:125%;font-family:sans-serif;letter-spacing:0px;word-spacing:0px;fill:#000000;fill-opacity:1;stroke:none;stroke-width:1px;stroke-linecap:butt;stroke-linejoin:miter;stroke-opacity:1"
       x="306.5813"
       y="13.925388"
       id="text4467"
       sodipodi:linespacing="125%"><tspan
         sodipodi:role="line"
         id="tspan4469"
         x="306.5813"
         y="13.925388" /></text>
    <g
       id="g10004"
       transform="matrix(0.7915738,0,0,0.7915738,286.12835,409.80985)">
      <g
         word-spacing="normal"
         letter-spacing="normal"
         font-size-adjust="none"
         font-stretch="normal"
         font-weight="normal"
         font-variant="normal"
         font-style="normal"
         stroke-miterlimit="10.433"
         xml:space="preserve"
         transform="matrix(1.0629921,0,0,-1.0629921,-186.02362,789.27165)"
         id="g10006"
         style="font-style:normal;font-variant:normal;font-weight:normal;font-stretch:normal;letter-spacing:normal;word-spacing:normal;text-anchor:start;fill:none;fill-opacity:1;fill-rule:evenodd;stroke:#000000;stroke-linecap:butt;stroke-linejoin:miter;stroke-miterlimit:10.43299961;stroke-dasharray:none;stroke-dashoffset:0;stroke-opacity:1"><path
           id="path10008"
           d="m 463.92,441.57 0,0.16 0,0.17 0,0.17 -0.01,0.08 0,0.08 -0.01,0.07 -0.01,0.08 -0.01,0.08 -0.01,0.07 -0.01,0.07 -0.02,0.07 -0.02,0.07 -0.02,0.06 -0.03,0.06 -0.03,0.06 -0.03,0.06 -0.03,0.05 -0.04,0.05 -0.04,0.04 -0.05,0.05 -0.05,0.04 -0.05,0.03 -0.03,0.02 -0.03,0.01 -0.03,0.01 -0.04,0.02 -0.03,0.01 -0.04,0.01 -0.03,0.01 -0.04,0.01 -0.04,0 -0.04,0.01 -0.04,0 -0.04,0.01 -0.05,0 -0.04,0 c -1,0 -1,-0.9 -1,-1.79 l 0,-46.23 c 0,-0.89 0,-1.79 1,-1.79 0.99,0 0.99,0.9 0.99,1.79 z"
           inkscape:connector-curvature="0"
           style="fill:#000000;stroke-width:0" /><path
           id="path10010"
           d="m 498.04,426.07 0.03,0.03 0.02,0.02 0.03,0.03 0.02,0.02 0.02,0.02 0.02,0.03 0.02,0.02 0.02,0.02 0.02,0.02 0.02,0.02 0.02,0.02 0.02,0.02 0.01,0.02 0.02,0.01 0.01,0.02 0.02,0.02 0.01,0.01 0.02,0.02 0.01,0.02 0.01,0.01 0.03,0.03 0.02,0.03 0.02,0.02 0.01,0.03 0.02,0.02 0.01,0.02 0.01,0.02 0.01,0.02 0.01,0.02 0.01,0.02 0.01,0.01 0,0.02 0.01,0.02 0,0.01 0,0.02 0.01,0.01 0,0.03 0,0.02 0,0.03 c 0,0.3 -0.2,0.6 -0.6,0.6 -0.3,0 -0.5,-0.25 -0.79,-0.6 l -11.41,-12.7 c -2,6.33 -2.4,7.57 -3.54,10.21 -0.55,1.15 -1.64,3.64 -6.03,3.64 -2.89,0 -4.18,-2.59 -4.18,-3.29 0,-0.05 0,-0.5 0.6,-0.5 0.45,0 0.54,0.3 0.65,0.55 0.74,1.94 2.33,2.14 2.64,2.14 1.49,0 2.98,-3.78 3.83,-5.97 1.6,-3.94 3.19,-9.72 3.19,-9.87 0,-0.05 0,-0.15 -0.4,-0.55 l -11.46,-12.8 c -0.55,-0.55 -0.55,-0.65 -0.55,-0.8 0,-0.29 0.3,-0.59 0.6,-0.59 0.35,0 0.6,0.34 0.8,0.54 l 11.41,12.81 c 1.59,-5.19 2.19,-7.13 3.38,-9.92 0.65,-1.49 1.75,-3.98 6.18,-3.98 2.89,0 4.23,2.59 4.23,3.24 0,0.24 -0.1,0.54 -0.59,0.54 -0.5,0 -0.55,-0.19 -0.7,-0.69 -0.45,-1.2 -1.69,-2 -2.64,-2 -2.54,0 -5.93,12.06 -7.03,15.89 z"
           inkscape:connector-curvature="0"
           style="fill:#000000;stroke-width:0" /><path
           id="path10012"
           d="m 514.6,417.61 0,1.69 -8.72,22.91 c -0.3,0.85 -0.59,1.15 -1.15,1.15 -0.54,0 -0.99,-0.45 -0.99,-1 0,-0.15 0,-0.25 0.25,-0.79 l 8.81,-23.12 -8.81,-23.01 c -0.25,-0.55 -0.25,-0.65 -0.25,-0.9 0,-0.54 0.45,-0.99 0.99,-0.99 0.65,0 0.85,0.49 1.05,0.99 z"
           inkscape:connector-curvature="0"
           style="fill:#000000;stroke-width:0" /></g>    </g>
    <g
       transform="matrix(0.72579129,0,0,0.72579129,-138.35947,481.17504)"
       id="g10141"
       style="fill:#00cd00;fill-opacity:1">
      <g
         style="font-style:normal;font-variant:normal;font-weight:normal;font-stretch:normal;letter-spacing:normal;word-spacing:normal;text-anchor:start;fill:#00cd00;fill-opacity:1;fill-rule:evenodd;stroke:#000000;stroke-linecap:butt;stroke-linejoin:miter;stroke-miterlimit:10.43299961;stroke-dasharray:none;stroke-dashoffset:0;stroke-opacity:1"
         id="content"
         transform="matrix(1.0629921,0,0,-1.0629921,-186.02362,789.27165)"
         xml:space="preserve"
         stroke-miterlimit="10.433"
         font-style="normal"
         font-variant="normal"
         font-weight="normal"
         font-stretch="normal"
         font-size-adjust="none"
         letter-spacing="normal"
         word-spacing="normal"><path
           style="fill:#00cd00;fill-opacity:1;stroke-width:0"
           inkscape:connector-curvature="0"
           d="m 485.04,426.07 0.03,0.03 0.02,0.02 0.03,0.03 0.02,0.02 0.02,0.02 0.02,0.03 0.02,0.02 0.02,0.02 0.02,0.02 0.02,0.02 0.02,0.02 0.02,0.02 0.01,0.02 0.02,0.01 0.01,0.02 0.02,0.02 0.01,0.01 0.02,0.02 0.01,0.02 0.01,0.01 0.03,0.03 0.02,0.03 0.02,0.02 0.01,0.03 0.02,0.02 0.01,0.02 0.01,0.02 0.01,0.02 0.01,0.02 0.01,0.02 0.01,0.01 0,0.02 0.01,0.02 0,0.01 0,0.02 0.01,0.01 0,0.03 0,0.02 0,0.03 c 0,0.3 -0.2,0.6 -0.6,0.6 -0.3,0 -0.5,-0.25 -0.79,-0.6 l -11.41,-12.7 c -2,6.33 -2.4,7.57 -3.54,10.21 -0.55,1.15 -1.64,3.64 -6.03,3.64 -2.89,0 -4.18,-2.59 -4.18,-3.29 0,-0.05 0,-0.5 0.6,-0.5 0.45,0 0.54,0.3 0.65,0.55 0.74,1.94 2.33,2.14 2.64,2.14 1.49,0 2.98,-3.78 3.83,-5.97 1.6,-3.94 3.19,-9.72 3.19,-9.87 0,-0.05 0,-0.15 -0.4,-0.55 l -11.46,-12.8 c -0.55,-0.55 -0.55,-0.65 -0.55,-0.8 0,-0.29 0.3,-0.59 0.6,-0.59 0.35,0 0.6,0.34 0.8,0.54 l 11.41,12.81 c 1.59,-5.19 2.19,-7.13 3.38,-9.92 0.65,-1.49 1.75,-3.98 6.18,-3.98 2.89,0 4.23,2.59 4.23,3.24 0,0.24 -0.1,0.54 -0.59,0.54 -0.5,0 -0.55,-0.19 -0.7,-0.69 -0.45,-1.2 -1.69,-2 -2.64,-2 -2.54,0 -5.93,12.06 -7.03,15.89 z"
           id="path10144" /><path
           style="fill:#00cd00;fill-opacity:1;stroke-width:0"
           inkscape:connector-curvature="0"
           d="m 503.49,394.04 0,0.03 0,0.03 -0.01,0.01 0,0.02 0,0.01 -0.01,0.02 0,0.02 -0.01,0.01 -0.01,0.02 -0.01,0.02 -0.01,0.03 -0.01,0.02 -0.02,0.02 -0.02,0.03 -0.02,0.03 -0.02,0.03 -0.03,0.03 -0.03,0.04 -0.01,0.02 -0.02,0.02 -0.02,0.02 -0.02,0.02 -0.02,0.02 -0.02,0.03 -0.02,0.02 -0.02,0.02 -0.02,0.03 -0.03,0.02 -0.02,0.03 -0.03,0.03 -0.02,0.03 -0.03,0.03 -0.03,0.03 -0.03,0.03 -0.03,0.03 -0.03,0.03 -0.04,0.04 -0.03,0.03 -0.04,0.04 -0.03,0.03 -0.04,0.04 -0.04,0.04 c -6.23,6.28 -7.82,15.69 -7.82,23.31 0,8.67 1.89,17.34 8.02,23.57 0.65,0.59 0.65,0.69 0.65,0.84 0,0.35 -0.2,0.5 -0.5,0.5 -0.5,0 -4.98,-3.39 -7.92,-9.72 -2.54,-5.47 -3.14,-11 -3.14,-15.19 0,-3.88 0.55,-9.91 3.29,-15.54 2.99,-6.12 7.27,-9.36 7.77,-9.36 0.3,0 0.5,0.15 0.5,0.49 z"
           id="path10146" /><path
           style="fill:#00cd00;fill-opacity:1;stroke-width:0"
           inkscape:connector-curvature="0"
           d="m 531.85,422.94 0.48,0.11 0.47,0.12 0.49,0.14 0.48,0.15 0.48,0.16 0.48,0.18 0.48,0.19 0.48,0.2 0.47,0.22 0.46,0.23 0.46,0.24 0.45,0.25 0.44,0.27 0.43,0.28 0.42,0.29 0.4,0.3 0.39,0.31 0.37,0.32 0.35,0.34 0.34,0.35 0.32,0.35 0.29,0.37 0.28,0.38 0.25,0.39 0.22,0.4 0.2,0.41 0.17,0.42 0.15,0.43 0.11,0.44 0.09,0.45 0.05,0.45 0.01,0.47 c 0,4.29 -4.48,7.47 -11.01,7.47 l -14.2,0 c -0.99,0 -1.44,0 -1.44,-0.99 0,-0.55 0.45,-0.55 1.4,-0.55 0.1,0 1.04,0 1.89,-0.1 0.9,-0.1 1.34,-0.15 1.34,-0.8 0,-0.2 -0.04,-0.35 -0.2,-0.94 l -6.67,-26.75 c -0.5,-1.95 -0.6,-2.35 -4.53,-2.35 -0.9,0 -1.35,0 -1.35,-0.99 0,-0.55 0.6,-0.55 0.7,-0.55 l 12.6,0 c 0.4,0 1,0 1,1 0,0.54 -0.45,0.54 -1.39,0.54 -1.85,0 -3.24,0 -3.24,0.9 0,0.3 0.09,0.55 0.14,0.85 l 3.3,13.2 5.92,0 -0.05,1.1 -5.58,0 3.24,13 c 0.3,1.19 0.45,1.69 1.39,1.84 0.45,0.05 2.05,0.05 3.04,0.05 3.54,0 9.07,0 9.07,-4.93 0,-1.7 -0.8,-5.14 -2.74,-7.08 -1.29,-1.29 -3.94,-2.88 -8.42,-2.88 l 0.05,-1.1 c 4.53,0 5.43,-2.79 5.43,-4.53 0,-0.75 -0.4,-2.3 -0.7,-3.44 -0.35,-1.4 -0.79,-3.24 -0.79,-4.23 0,-5.39 5.97,-5.39 6.62,-5.39 4.24,0 5.98,5.03 5.98,5.73 0,0.6 -0.55,0.6 -0.6,0.6 -0.45,0 -0.54,-0.35 -0.65,-0.7 -1.24,-3.68 -3.38,-4.53 -4.53,-4.53 -1.64,0 -1.99,1.1 -1.99,3.04 0,1.54 0.3,4.08 0.5,5.68 0.1,0.69 0.19,1.64 0.19,2.34 0,3.83 -3.33,5.38 -4.68,5.88 z"
           id="path10148" /><path
           style="fill:#00cd00;fill-opacity:1;stroke-width:0"
           inkscape:connector-curvature="0"
           d="m 558.4,418.45 -0.01,0.37 0,0.39 -0.01,0.39 -0.01,0.41 -0.04,0.84 -0.06,0.88 -0.09,0.92 -0.1,0.94 -0.14,0.98 -0.16,1 -0.2,1.02 -0.23,1.04 -0.27,1.05 -0.3,1.06 -0.35,1.06 -0.39,1.07 -0.22,0.53 -0.22,0.54 -0.24,0.53 -0.25,0.53 c -2.99,6.12 -7.27,9.36 -7.77,9.36 -0.3,0 -0.5,-0.2 -0.5,-0.5 0,-0.15 0,-0.25 0.94,-1.15 4.89,-4.92 7.73,-12.85 7.73,-23.26 0,-8.52 -1.85,-17.28 -8.02,-23.56 -0.65,-0.6 -0.65,-0.69 -0.65,-0.85 0,-0.29 0.2,-0.49 0.5,-0.49 0.5,0 4.98,3.38 7.92,9.71 2.54,5.48 3.14,11.01 3.14,15.19 z"
           id="path10150" /></g>    </g>
    <g
       id="g10286"
       transform="matrix(0.74606329,0,0,0.74319572,258.75822,754.799)">
      <g
         word-spacing="normal"
         letter-spacing="normal"
         font-size-adjust="none"
         font-stretch="normal"
         font-weight="normal"
         font-variant="normal"
         font-style="normal"
         stroke-miterlimit="10.433"
         xml:space="preserve"
         transform="matrix(1.0629921,0,0,-1.0629921,-186.02362,789.27165)"
         id="g10288"
         style="font-style:normal;font-variant:normal;font-weight:normal;font-stretch:normal;letter-spacing:normal;word-spacing:normal;text-anchor:start;fill:#ff0000;fill-opacity:1;fill-rule:evenodd;stroke:none;stroke-linecap:butt;stroke-linejoin:miter;stroke-miterlimit:10.43299961;stroke-dasharray:none;stroke-dashoffset:0;stroke-opacity:1"><path
           id="path10290"
           d="m 463.92,441.57 0,0.16 0,0.17 0,0.17 -0.01,0.08 0,0.08 -0.01,0.07 -0.01,0.08 -0.01,0.08 -0.01,0.07 -0.01,0.07 -0.02,0.07 -0.02,0.07 -0.02,0.06 -0.03,0.06 -0.03,0.06 -0.03,0.06 -0.03,0.05 -0.04,0.05 -0.04,0.04 -0.05,0.05 -0.05,0.04 -0.05,0.03 -0.03,0.02 -0.03,0.01 -0.03,0.01 -0.04,0.02 -0.03,0.01 -0.04,0.01 -0.03,0.01 -0.04,0.01 -0.04,0 -0.04,0.01 -0.04,0 -0.04,0.01 -0.05,0 -0.04,0 c -1,0 -1,-0.9 -1,-1.79 l 0,-46.23 c 0,-0.89 0,-1.79 1,-1.79 0.99,0 0.99,0.9 0.99,1.79 z"
           inkscape:connector-curvature="0"
           style="fill:#ff0000;fill-opacity:1;stroke:none;stroke-width:0;stroke-opacity:1" /><path
           id="path10292"
           d="m 491.66,430.91 0,0.31 -0.01,0.34 -0.01,0.36 -0.02,0.37 -0.03,0.38 -0.04,0.4 -0.05,0.41 -0.06,0.41 -0.06,0.42 -0.08,0.42 -0.09,0.43 -0.1,0.42 -0.11,0.43 -0.13,0.42 -0.13,0.41 -0.16,0.4 -0.17,0.4 -0.18,0.39 -0.2,0.37 -0.22,0.35 -0.23,0.34 -0.25,0.32 -0.27,0.3 -0.29,0.27 -0.31,0.25 -0.17,0.12 -0.16,0.11 -0.18,0.1 -0.17,0.09 -0.19,0.09 -0.19,0.07 -0.19,0.07 -0.2,0.06 -0.21,0.06 -0.21,0.04 -0.21,0.03 -0.23,0.03 -0.23,0.01 -0.23,0.01 -0.05,-1.1 c 2.44,0 2.74,-3.18 2.74,-6.02 0,-2.45 -0.4,-4.99 -1.59,-9.92 l -10.42,0 c 0.85,3.19 1.84,7.17 3.84,10.71 1.34,2.44 3.18,5.23 5.43,5.23 l 0.05,1.1 c -6.93,0 -14.6,-14.05 -14.6,-25.46 0,-4.68 1.45,-10.21 5.98,-10.21 l 0,1.1 c -1.64,0 -2.69,1.44 -2.69,6.07 0,2.1 0.3,4.99 1.59,9.87 l 10.37,0 c -0.55,-2.29 -1.6,-6.53 -3.49,-10.11 -1.74,-3.39 -3.64,-5.83 -5.78,-5.83 l 0,-1.1 c 7.02,0 14.59,14.3 14.59,25.46 z"
           inkscape:connector-curvature="0"
           style="fill:#ff0000;fill-opacity:1;stroke:none;stroke-width:0;stroke-opacity:1" /><path
           id="path10294"
           d="m 511.55,411.87 0.01,0.05 0.02,0.04 0.01,0.05 0.01,0.04 0.01,0.04 0.01,0.04 0,0.03 0.01,0.04 0.01,0.03 0.01,0.03 0,0.03 0.01,0.03 0,0.03 0.01,0.02 0,0.02 0,0.03 0.01,0.02 0,0.02 0,0.01 0,0.02 0.01,0.01 0,0.02 0,0.01 0,0.01 0,0.01 0,0.01 0,0.01 0,0.01 0,0 0,0.01 0,0 0,0.01 c 0,0.77 -0.63,1.11 -1.19,1.11 -0.8,0 -1.46,-0.66 -1.6,-1.32 -0.59,0.94 -1.78,1.99 -3.59,1.99 l 0,-0.98 c 2.44,0 3.1,-2.61 3.1,-2.96 0,-0.07 0,-0.14 -0.1,-0.53 l -1.57,-6.27 c -0.14,-0.53 -0.14,-0.6 -0.73,-1.29 -1.22,-1.47 -2.9,-2.37 -4.22,-2.37 -1.78,0 -2.62,1.5 -2.62,3.31 0,1.53 0.94,5.44 1.85,6.97 1.46,2.44 3.1,3.14 4.29,3.14 l 0,0.98 c -4.36,0 -8.93,-4.68 -8.93,-9.66 0,-3.59 2.44,-5.72 5.3,-5.72 1.61,0 3.14,0.8 4.36,1.88 l -0.77,-3.13 c -0.38,-1.47 -0.63,-2.41 -1.95,-3.6 -1.53,-1.29 -3.03,-1.29 -3.91,-1.29 -1.6,0 -2.05,0.11 -2.68,0.25 0.87,0.42 1.12,1.25 1.12,1.74 0,0.84 -0.67,1.29 -1.36,1.29 -0.98,0 -1.99,-0.8 -1.99,-2.12 0,-2.1 3,-2.13 4.95,-2.13 5.48,0 7.81,2.79 8.3,4.77 z"
           inkscape:connector-curvature="0"
           style="fill:#ff0000;fill-opacity:1;stroke:none;stroke-width:0;stroke-opacity:1" /><path
           id="path10296"
           d="m 529.6,417.61 0,1.69 -8.72,22.91 c -0.3,0.85 -0.6,1.15 -1.15,1.15 -0.54,0 -0.99,-0.45 -0.99,-1 0,-0.15 0,-0.25 0.25,-0.79 l 8.81,-23.12 -8.81,-23.01 c -0.25,-0.55 -0.25,-0.65 -0.25,-0.9 0,-0.54 0.45,-0.99 0.99,-0.99 0.65,0 0.85,0.49 1.05,0.99 z"
           inkscape:connector-curvature="0"
           style="fill:#ff0000;fill-opacity:1;stroke:none;stroke-width:0;stroke-opacity:1" /></g>    </g>
    <path
       style="font-style:normal;font-variant:normal;font-weight:normal;font-stretch:normal;letter-spacing:normal;word-spacing:normal;text-anchor:start;fill:#000000;fill-opacity:1;fill-rule:evenodd;stroke:#000000;stroke-width:0;stroke-linecap:butt;stroke-linejoin:miter;stroke-miterlimit:10.43299961;stroke-dasharray:none;stroke-dashoffset:0;stroke-opacity:1"
       inkscape:connector-curvature="0"
       d="m 1013.8282,989.9412 0.3703,-0.085 0.3626,-0.093 0.3781,-0.108 0.3703,-0.1158 0.3703,-0.1235 0.3704,-0.1388 0.3703,-0.1466 0.3703,-0.1543 0.3626,-0.1698 0.3549,-0.1774 0.3549,-0.1852 0.3472,-0.1929 0.3394,-0.2083 0.3318,-0.216 0.324,-0.2237 0.3086,-0.2315 0.3009,-0.2392 0.2855,-0.2468 0.27,-0.2624 0.2623,-0.27 0.2469,-0.27 0.2237,-0.2855 0.2161,-0.2932 0.1928,-0.3008 0.1698,-0.3086 0.1542,-0.3164 0.1312,-0.324 0.1156,-0.33176 0.085,-0.33946 0.069,-0.34718 0.039,-0.34718 0.01,-0.36261 c 10e-5,-3.30978 -3.4563,-5.76318 -8.4943,-5.76318 l -10.9554,0 c -0.7638,0 -1.111,0 -1.111,0.7638 0,0.42433 0.3472,0.42433 1.0801,0.42433 0.077,0 0.8024,0 1.4582,0.0771 0.6943,0.0771 1.0338,0.11566 1.0338,0.61719 0,0.15438 -0.031,0.27004 -0.1544,0.72523 l -5.14595,20.63792 c -0.38577,1.5044 -0.46292,1.813 -3.49496,1.813 -0.69435,0 -1.04153,0 -1.04153,0.7638 0,0.4244 0.4629,0.4244 0.54006,0.4244 l 9.72098,0 c 0.3086,0 0.7716,0 0.7716,-0.7716 0,-0.4166 -0.3472,-0.4166 -1.0724,-0.4166 -1.4273,0 -2.4997,0 -2.4997,-0.6943 0,-0.2315 0.069,-0.4244 0.108,-0.6558 l 2.5459,-10.184 4.5674,0 -0.039,-0.8486 -4.305,0 2.4997,-10.02965 c 0.2314,-0.91809 0.3472,-1.30385 1.0724,-1.41958 0.3472,-0.0385 1.5816,-0.0385 2.3454,-0.0385 2.7311,0 6.9976,0 6.9976,3.80354 0,1.31157 -0.6172,3.96559 -2.114,5.46229 -0.9952,0.9953 -3.0397,2.222 -6.4961,2.222 l 0.039,0.8486 c 3.4949,0 4.1893,2.1525 4.1893,3.495 0,0.5786 -0.3086,1.7744 -0.5401,2.654 -0.27,1.0801 -0.6095,2.4997 -0.6095,3.2635 0,4.1584 4.606,4.1584 5.1074,4.1584 3.2712,0 4.6137,-3.8807 4.6137,-4.4208 0,-0.4629 -0.4244,-0.4629 -0.4629,-0.4629 -0.3472,0 -0.4167,0.2701 -0.5015,0.5401 -0.9567,2.8391 -2.6077,3.4949 -3.495,3.4949 -1.2652,0 -1.5353,-0.8486 -1.5353,-2.3454 0,-1.1881 0.2315,-3.1477 0.3858,-4.3821 0.077,-0.5324 0.1465,-1.2653 0.1465,-1.8054 0,-2.9549 -2.5691,-4.1507 -3.6106,-4.5365 z"
       id="path10148-2" />
  </g>
</svg>
